P3
# Created by GIMP version 2.10.32 PNM plug-in
3 3
255
255
163
163
123
242
115
168
163
255
255
235
235
230
249
229
235
235
255
255
255
255
255
255
255
255
255
255
